<mxfile host="65bd71144e" scale="1" border="0" disableSvgWarning="true">
    <diagram name="Page-1" id="Z0f1hleD9ibjwIztTprP">
        <mxGraphModel dx="2185" dy="1179" grid="1" gridSize="10" guides="1" tooltips="1" connect="1" arrows="1" fold="1" page="1" pageScale="1" pageWidth="827" pageHeight="1169" math="0" shadow="0">
            <root>
                <mxCell id="0"/>
                <mxCell id="1" parent="0"/>
                <mxCell id="ZglaTu_Lin9Fp8b_h4Ue-1" value="&lt;font style=&quot;font-size: 16px;&quot;&gt;JupyterHUB&lt;/font&gt;" style="rounded=0;whiteSpace=wrap;html=1;fillColor=#dae8fc;strokeColor=#6c8ebf;" parent="1" vertex="1">
                    <mxGeometry x="40" y="120" width="100" height="30" as="geometry"/>
                </mxCell>
                <mxCell id="ZglaTu_Lin9Fp8b_h4Ue-2" value="&lt;font style=&quot;font-size: 16px;&quot;&gt;Superset&lt;/font&gt;" style="rounded=0;whiteSpace=wrap;html=1;" parent="1" vertex="1">
                    <mxGeometry x="40" y="160" width="100" height="30" as="geometry"/>
                </mxCell>
                <mxCell id="ZglaTu_Lin9Fp8b_h4Ue-6" value="&lt;font style=&quot;font-size: 16px;&quot;&gt;React&lt;/font&gt;" style="rounded=0;whiteSpace=wrap;html=1;" parent="1" vertex="1">
                    <mxGeometry x="150" y="120" width="130" height="70" as="geometry"/>
                </mxCell>
                <mxCell id="ZglaTu_Lin9Fp8b_h4Ue-8" value="&lt;font style=&quot;font-size: 16px;&quot;&gt;API (endpoints: upload, raw, repo, archive)&lt;/font&gt;" style="rounded=0;whiteSpace=wrap;html=1;" parent="1" vertex="1">
                    <mxGeometry x="40" y="200" width="400" height="30" as="geometry"/>
                </mxCell>
                <mxCell id="ZglaTu_Lin9Fp8b_h4Ue-9" value="&lt;font style=&quot;font-size: 16px;&quot;&gt;files&lt;/font&gt;" style="rounded=0;whiteSpace=wrap;html=1;" parent="1" vertex="1">
                    <mxGeometry x="40" y="240" width="100" height="110" as="geometry"/>
                </mxCell>
                <mxCell id="ZglaTu_Lin9Fp8b_h4Ue-10" value="&lt;font style=&quot;font-size: 16px;&quot;&gt;Django with ninja api&lt;/font&gt;" style="rounded=0;whiteSpace=wrap;html=1;" parent="1" vertex="1">
                    <mxGeometry x="150" y="240" width="290" height="30" as="geometry"/>
                </mxCell>
                <mxCell id="ZglaTu_Lin9Fp8b_h4Ue-11" value="&lt;font style=&quot;font-size: 16px;&quot;&gt;celery&lt;/font&gt;" style="rounded=0;whiteSpace=wrap;html=1;" parent="1" vertex="1">
                    <mxGeometry x="150" y="280" width="70" height="30" as="geometry"/>
                </mxCell>
                <mxCell id="ZglaTu_Lin9Fp8b_h4Ue-13" value="&lt;font style=&quot;font-size: 16px;&quot;&gt;Django orm&lt;/font&gt;" style="rounded=0;whiteSpace=wrap;html=1;" parent="1" vertex="1">
                    <mxGeometry x="150" y="320" width="160" height="30" as="geometry"/>
                </mxCell>
                <mxCell id="ZglaTu_Lin9Fp8b_h4Ue-14" value="&lt;font style=&quot;font-size: 16px;&quot;&gt;parsers&lt;/font&gt;" style="rounded=0;whiteSpace=wrap;html=1;" parent="1" vertex="1">
                    <mxGeometry x="230" y="280" width="80" height="30" as="geometry"/>
                </mxCell>
                <mxCell id="ZglaTu_Lin9Fp8b_h4Ue-15" value="&lt;span style=&quot;font-size: 16px;&quot;&gt;manticore sdk&lt;/span&gt;" style="rounded=0;whiteSpace=wrap;html=1;" parent="1" vertex="1">
                    <mxGeometry x="320" y="280" width="120" height="30" as="geometry"/>
                </mxCell>
                <mxCell id="ZglaTu_Lin9Fp8b_h4Ue-16" value="&lt;font style=&quot;font-size: 16px;&quot;&gt;JSON&lt;/font&gt;" style="rounded=0;whiteSpace=wrap;html=1;" parent="1" vertex="1">
                    <mxGeometry x="320" y="320" width="120" height="30" as="geometry"/>
                </mxCell>
                <mxCell id="ZglaTu_Lin9Fp8b_h4Ue-17" value="&lt;font style=&quot;font-size: 16px;&quot;&gt;Apache AGE&lt;/font&gt;" style="strokeWidth=2;html=1;shape=mxgraph.flowchart.database;whiteSpace=wrap;" parent="1" vertex="1">
                    <mxGeometry x="460" y="140" width="110" height="60" as="geometry"/>
                </mxCell>
                <mxCell id="ZglaTu_Lin9Fp8b_h4Ue-18" value="&lt;font style=&quot;font-size: 16px;&quot;&gt;PostgreSQL&lt;/font&gt;" style="strokeWidth=2;html=1;shape=mxgraph.flowchart.database;whiteSpace=wrap;" parent="1" vertex="1">
                    <mxGeometry x="460" y="220" width="110" height="60" as="geometry"/>
                </mxCell>
                <mxCell id="ZglaTu_Lin9Fp8b_h4Ue-19" value="&lt;font style=&quot;font-size: 16px;&quot;&gt;Manticore&lt;/font&gt;" style="strokeWidth=2;html=1;shape=mxgraph.flowchart.database;whiteSpace=wrap;" parent="1" vertex="1">
                    <mxGeometry x="590" y="140" width="110" height="60" as="geometry"/>
                </mxCell>
                <mxCell id="ZglaTu_Lin9Fp8b_h4Ue-20" value="&lt;span style=&quot;font-size: 16px;&quot;&gt;Redis&lt;/span&gt;" style="shape=parallelogram;html=1;strokeWidth=2;perimeter=parallelogramPerimeter;whiteSpace=wrap;rounded=1;arcSize=12;size=0.23;" parent="1" vertex="1">
                    <mxGeometry x="595" y="220" width="100" height="60" as="geometry"/>
                </mxCell>
                <mxCell id="ZglaTu_Lin9Fp8b_h4Ue-21" value="&lt;font style=&quot;font-size: 16px;&quot;&gt;existing 3rd party&lt;/font&gt;" style="rounded=0;whiteSpace=wrap;html=1;" parent="1" vertex="1">
                    <mxGeometry x="460" y="310" width="240" height="30" as="geometry"/>
                </mxCell>
                <mxCell id="3" value="&lt;font style=&quot;font-size: 16px;&quot;&gt;Django admin&lt;/font&gt;" style="rounded=0;whiteSpace=wrap;html=1;" parent="1" vertex="1">
                    <mxGeometry x="300" y="120" width="130" height="70" as="geometry"/>
                </mxCell>
            </root>
        </mxGraphModel>
    </diagram>
</mxfile>